<svg xmlns="http://www.w3.org/2000/svg" viewBox="0 0 24 24" fill="white">
  <path d="M12.206.793c.99 0 4.347.276 5.93 3.821.529 1.193.403 3.219.299 4.847l-.003.06c-.012.18-.022.345-.03.51.075.045.203.09.401.09.3-1.5-1.5-1.5-1.5-1.5s1.5 0 1.5 1.5c0 .66-.45 1.2-1.05 1.35-.15.03-.3.045-.45.045-1.8 0-2.7 1.65-2.7 1.65s-.9-1.65-2.7-1.65c-.15 0-.3-.015-.45-.045-.6-.15-1.05-.69-1.05-1.35 0-1.5 1.5-1.5 1.5-1.5s-1.8 0-1.5 1.5c.198 0 .326-.045.401-.09-.008-.165-.018-.33-.03-.51l-.003-.06c-.104-1.628-.23-3.654.299-4.847C7.86 1.068 11.216.793 12.206.793zm9.794 13.607c-.42.063-.63.387-.63.387s.21 1.26-.84 1.68c-.42.168-.63.42-.63.63 0 .21.21.42.63.63 1.26.63 2.31 1.68 2.52 2.73.21.84-.21 1.26-.63 1.47-.42.21-1.26.42-3.15 0-1.68-.42-2.52-.84-3.57-.84-.84 0-1.47.42-2.1.84-.63.42-1.68.84-2.73.84s-2.1-.42-2.73-.84c-.63-.42-1.26-.84-2.1-.84-1.05 0-1.89.42-3.57.84-1.89.42-2.73.21-3.15 0-.42-.21-.84-.63-.63-1.47.21-1.05 1.26-2.1 2.52-2.73.42-.21.63-.42.63-.63s-.21-.462-.63-.63c-1.05-.42-.84-1.68-.84-1.68s-.21-.324-.63-.387c-.42-.063-.63-.42-.63-.63s.21-.42.63-.63c.42-.21 1.26-.42 2.52-.42s1.89.21 2.73.42c.84.21 1.47.63 2.1.63s1.26-.42 2.1-.63c.84-.21 1.47-.42 2.73-.42s1.89.21 2.73.42c.84.21 1.47.63 2.1.63s1.26-.42 2.1-.63c.84-.21 1.47-.42 2.73-.42s2.1.21 2.52.42c.42.21.63.42.63.63s-.21.567-.63.63z"/>
</svg>
